<?xml version="1.0" encoding="UTF-8"?>
<svg version="1.1" xmlns="http://www.w3.org/2000/svg" width="512" height="512">
<path d="M0 0 C0.83983938 -0.00453111 1.67967877 -0.00906223 2.54496783 -0.01373065 C5.35764586 -0.02638551 8.17013052 -0.02475357 10.98283386 -0.02310181 C13.0001246 -0.02908639 15.01741305 -0.03589178 17.03469849 -0.04345703 C22.51411589 -0.06113173 27.99347083 -0.06581305 33.47291398 -0.0670886 C38.04790681 -0.06898787 42.62288511 -0.07634576 47.19787234 -0.08343279 C57.9927368 -0.09972008 68.7875679 -0.10460145 79.58244324 -0.10317993 C90.71543107 -0.10197852 101.84822503 -0.12307964 112.9811638 -0.15466726 C122.54140472 -0.18082537 132.10158231 -0.19154741 141.66185874 -0.19026911 C147.37085164 -0.18975933 153.07967229 -0.19545176 158.78862953 -0.21662521 C164.15916525 -0.23599953 169.52936424 -0.2361374 174.89991188 -0.22159195 C176.86871838 -0.21950174 178.83754592 -0.22421736 180.80631638 -0.23631287 C183.49895751 -0.25178141 186.19043992 -0.24244675 188.88305664 -0.22705078 C189.65787866 -0.23733791 190.43270068 -0.24762503 191.23100215 -0.25822389 C197.78234905 -0.17572854 202.93508606 1.90409868 207.87419128 6.23226929 C208.41301941 6.88324585 208.95184753 7.53422241 209.50700378 8.20492554 C210.06130066 8.85332397 210.61559753 9.50172241 211.18669128 10.16976929 C214.5112337 14.99484842 214.89984766 19.33870065 214.75700378 25.07992554 C214.74798035 25.77279663 214.73895691 26.46566772 214.72966003 27.17953491 C214.70626535 28.87564949 214.67040019 30.57158424 214.63200378 32.26742554 C215.52919128 32.24647827 216.42637878 32.22553101 217.35075378 32.20394897 C220.71300237 32.13534938 224.07449613 32.08542259 227.43717957 32.04769897 C228.88619296 32.02771258 230.33512704 32.00051356 231.78385925 31.96566772 C246.80215957 31.61375717 246.80215957 31.61375717 253.63200378 36.26742554 C254.22511101 37.06570518 254.22511101 37.06570518 254.8302002 37.88011169 C257.76316557 40.13837307 261.09615642 39.67186563 264.64836121 39.63632202 C265.46500244 39.6400885 266.28164368 39.64385498 267.12303162 39.6477356 C268.89745117 39.65417358 270.67190519 39.65383286 272.4463253 39.64755058 C275.25921023 39.63844895 278.07142724 39.64865522 280.88427734 39.66416931 C288.88196235 39.70428393 296.87959626 39.70547754 304.87736511 39.70321655 C309.76983901 39.70316532 314.66195508 39.72240525 319.55433083 39.75255013 C322.31745467 39.76334344 325.07988574 39.75126071 327.84298706 39.73872375 C329.55155611 39.7476343 331.26011961 39.75771081 332.96867371 39.76913452 C333.73001114 39.75939102 334.49134857 39.74964752 335.27575684 39.73960876 C341.80401389 39.82622231 346.95370758 41.92041685 351.87419128 46.23226929 C352.41301941 46.88324585 352.95184753 47.53422241 353.50700378 48.20492554 C354.06130066 48.85332397 354.61559753 49.50172241 355.18669128 50.16976929 C357.85051695 54.03591626 358.88142211 57.53086625 358.88927269 62.20194721 C358.89572158 63.17535283 358.90217047 64.14875846 358.90881479 65.15166122 C358.90416898 66.74415491 358.90416898 66.74415491 358.89942932 68.36882019 C358.90396043 69.50267534 358.90849155 70.6365305 358.91315997 71.8047449 C358.92584231 75.61241464 358.9241811 79.41994206 358.92253113 83.22763062 C358.92742637 85.95427491 358.93526218 88.68090916 358.94288635 91.407547 C358.95949461 98.05040044 358.96499582 104.69321838 358.96611111 111.33609084 C358.96706169 116.73636619 358.97117248 122.13662983 358.97751236 127.53690147 C358.99512448 142.85067427 359.0043513 158.16441903 359.00285141 173.47820202 C359.0027715 174.30365799 359.00269159 175.12911396 359.00260925 175.97958374 C359.00252749 176.80604866 359.00244573 177.63251357 359.00236149 178.48402288 C359.00154865 191.87699164 359.02068586 205.26984791 359.04888599 218.66278414 C359.07761913 232.41750002 359.09142604 246.17216106 359.08969843 259.92690772 C359.08903467 267.64796841 359.09452098 275.36891119 359.11605453 283.08994484 C359.13427205 289.66407639 359.13860909 296.23803659 359.12503569 302.81218246 C359.11850859 306.16521926 359.12055501 309.51765928 359.13574219 312.87070847 C359.1511547 316.50912642 359.14191152 320.14668088 359.1264801 323.78507996 C359.13676723 324.84005025 359.14705436 325.89502055 359.15765321 326.98195964 C359.08779646 334.43450409 357.62966516 339.84663502 352.66716003 345.50961304 C352.01618347 346.04844116 351.36520691 346.58726929 350.69450378 347.14242554 C350.04610535 347.69672241 349.39770691 348.25101929 348.72966003 348.82211304 C343.98283984 352.09273403 339.94603403 352.51593854 334.23519897 352.50793457 C333.49997098 352.50964342 332.76474298 352.51135227 332.00723535 352.5131129 C329.54896913 352.51640146 327.09097719 352.50541466 324.63273621 352.49447632 C322.86847439 352.49391207 321.1042121 352.49422904 319.33995056 352.49536133 C314.55316807 352.4959353 309.76648576 352.48417377 304.97972655 352.47021341 C299.97623562 352.45771348 294.97274242 352.45653613 289.96923828 352.4541626 C280.49561139 352.44794567 271.02203064 352.43153195 261.54842407 352.41146362 C250.7625464 352.38911127 239.97666653 352.37811285 229.19077146 352.36807275 C207.00448981 352.34716592 184.8182497 352.31198578 162.63200378 352.26742554 C162.93493347 353.135448 163.23786316 354.00347046 163.54997253 354.89779663 C164.67060551 358.11358225 165.78847262 361.33030133 166.90446472 364.54769897 C167.38838113 365.94098851 167.87340239 367.33389482 168.35954285 368.72640991 C169.05742884 370.72606693 169.75135218 372.72706077 170.44450378 374.72836304 C170.8634491 375.93283081 171.28239441 377.13729858 171.71403503 378.37826538 C172.63200378 381.26742554 172.63200378 381.26742554 172.63200378 383.26742554 C173.18887878 383.29320679 173.74575378 383.31898804 174.31950378 383.34555054 C182.43116012 383.94844391 187.9671773 386.13858662 193.50700378 392.20492554 C198.74706577 398.33457944 199.08456854 403.95175696 198.93669128 411.82211304 C198.24140176 419.68423309 194.5844636 423.81701257 188.72966003 428.82211304 C184.71365356 431.58919385 181.14474293 432.51709249 176.30111694 432.53485107 C175.24562149 432.54338104 174.19012604 432.55191101 173.10264587 432.56069946 C171.95499756 432.55979309 170.80734924 432.55888672 169.62492371 432.55795288 C167.79967918 432.56802872 167.79967918 432.56802872 165.93756104 432.57830811 C162.60677119 432.59403681 159.27623073 432.60066233 155.94542098 432.60193968 C153.86166748 432.60336359 151.77793993 432.60763775 149.69419289 432.61293411 C142.41652906 432.63142624 135.13893838 432.63960588 127.86125183 432.63803101 C121.09073763 432.6368303 114.32054257 432.6579205 107.55010909 432.68951833 C101.7265617 432.71572282 95.90311827 432.72639654 90.07951242 432.72512019 C86.60612878 432.72461171 83.13302881 432.73023085 79.65970421 432.75147629 C75.78210006 432.77454786 71.90492894 432.76531222 68.02726746 432.75326538 C66.88569183 432.76450439 65.74411621 432.77574341 64.56794739 432.787323 C56.78740197 432.72597565 51.40373917 431.57262223 45.38981628 426.30258179 C44.85098816 425.65160522 44.31216003 425.00062866 43.75700378 424.32992554 C43.20270691 423.6815271 42.64841003 423.03312866 42.07731628 422.36508179 C37.59788281 415.86384997 37.9573665 408.89601637 38.63200378 401.26742554 C40.30250212 394.64886883 44.99739405 389.90203728 50.63200378 386.26742554 C55.35045618 384.26952227 59.50448657 383.26742554 64.63200378 383.26742554 C64.83503113 382.42437866 64.83503113 382.42437866 65.04216003 381.56430054 C66.76057891 374.85526397 68.94311247 368.37151468 71.25309753 361.84555054 C71.57822327 360.92209839 71.903349 359.99864624 72.23832703 359.04721069 C73.03448921 356.78666572 73.83242179 354.52676265 74.63200378 352.26742554 C73.71686005 352.27111271 72.80171631 352.27479988 71.85884094 352.27859879 C49.58272853 352.36696853 27.30664636 352.43314431 5.03039551 352.47467422 C-5.742277 352.49529203 -16.51483244 352.5233978 -27.28742981 352.56918335 C-36.67775044 352.60907491 -46.06798627 352.63486403 -55.45838928 352.64377952 C-60.42972817 352.64899031 -65.40082449 352.66122146 -70.37208557 352.69034576 C-75.05390595 352.71755143 -79.73538447 352.7258601 -84.41727638 352.71985626 C-86.13292106 352.72095419 -87.84857749 352.72887739 -89.56415367 352.74424744 C-107.08891883 352.893516 -107.08891883 352.893516 -114.61018372 346.30258179 C-115.14901184 345.65160522 -115.68783997 345.00062866 -116.24299622 344.32992554 C-116.79729309 343.6815271 -117.35158997 343.03312866 -117.92268372 342.36508179 C-120.58650938 338.49893481 -121.61741454 335.00398482 -121.62526512 330.33290386 C-121.63171401 329.35949824 -121.63816291 328.38609262 -121.64480722 327.38318986 C-121.64171002 326.3215274 -121.63861281 325.25986493 -121.63542175 324.16603088 C-121.63995287 323.03217573 -121.64448398 321.89832058 -121.6491524 320.73010617 C-121.66183474 316.92243643 -121.66017353 313.11490902 -121.65852356 309.30722046 C-121.6634188 306.58057616 -121.67125461 303.85394192 -121.67887878 301.12730408 C-121.69548704 294.48445064 -121.70098825 287.8416327 -121.70210354 281.19876023 C-121.70305412 275.79848489 -121.70716491 270.39822124 -121.71350479 264.9979496 C-121.73111691 249.68417681 -121.74034374 234.37043204 -121.73884384 219.05664905 C-121.73876393 218.23119308 -121.73868402 217.40573712 -121.73860168 216.55526733 C-121.73851992 215.72880242 -121.73843816 214.9023375 -121.73835392 214.0508282 C-121.73754108 200.65785944 -121.75667829 187.26500316 -121.78487842 173.87206694 C-121.81361156 160.11735105 -121.82741847 146.36269001 -121.82569087 132.60794336 C-121.8250271 124.88688266 -121.83051341 117.16593988 -121.85204697 109.44490623 C-121.87026448 102.87077468 -121.87460152 96.29681448 -121.86102812 89.72266861 C-121.85450102 86.36963181 -121.85654744 83.01719179 -121.87173462 79.66414261 C-121.88714713 76.02572465 -121.87790395 72.3881702 -121.86247253 68.74977112 C-121.87275966 67.69480082 -121.88304679 66.63983053 -121.89364564 65.55289143 C-121.82378889 58.10034698 -120.3656576 52.68821606 -115.40315247 47.02523804 C-114.7521759 46.48640991 -114.10119934 45.94758179 -113.43049622 45.39242554 C-112.45789856 44.56098022 -112.45789856 44.56098022 -111.46565247 43.71273804 C-106.65499043 40.39812918 -102.2676802 39.98331517 -96.54841614 40.04037476 C-95.77715393 40.0400827 -95.00589172 40.03979065 -94.21125793 40.03948975 C-91.67354402 40.04087802 -89.1361273 40.05641539 -86.59846497 40.07211304 C-84.83441325 40.07584496 -83.07035946 40.07869108 -81.30630493 40.08068848 C-76.67190287 40.08831084 -72.03762691 40.10794732 -67.40327454 40.13009644 C-62.67082932 40.15058497 -57.93836366 40.15969662 -53.20588684 40.16976929 C-43.92653467 40.19119454 -34.64727595 40.22531362 -25.36799622 40.26742554 C-25.39941711 39.28515991 -25.39941711 39.28515991 -25.43147278 38.28305054 C-25.51530004 35.27800225 -25.56686516 32.2732009 -25.61799622 29.26742554 C-25.65151184 28.2374646 -25.68502747 27.20750366 -25.71955872 26.14633179 C-25.81902608 18.33814408 -24.69003104 13.05837582 -19.40315247 7.02523804 C-18.7521759 6.48640991 -18.10119934 5.94758179 -17.43049622 5.39242554 C-16.78209778 4.83812866 -16.13369934 4.28383179 -15.46565247 3.71273804 C-10.49661527 0.28900664 -5.9000423 -0.02338235 0 0 Z M-7.36799622 19.26742554 C-10.27609575 23.6821407 -9.65603993 29.18046806 -9.64265442 34.28671265 C-9.64776535 35.29217636 -9.65287628 36.29764008 -9.65814209 37.33357239 C-9.67203112 40.65403206 -9.67108187 43.97428403 -9.66877747 47.29476929 C-9.67266464 49.60495582 -9.67699936 51.91514164 -9.6817627 54.22532654 C-9.68922334 59.06645017 -9.68893463 63.90750087 -9.68367004 68.74862671 C-9.67787436 74.95051696 -9.6948098 81.15210866 -9.71801472 87.35394955 C-9.73275027 92.1246261 -9.73362401 96.89523071 -9.73050499 101.66592598 C-9.73101825 103.95245518 -9.73625678 106.2389884 -9.74631691 108.52549553 C-9.7586608 111.7234421 -9.75190163 114.92080656 -9.74031067 118.1187439 C-9.74795441 119.06179382 -9.75559814 120.00484375 -9.76347351 120.97647095 C-9.72197952 126.1591095 -9.27226537 129.78459752 -6.36799622 134.26742554 C-3.10451636 136.76255202 0.25578197 136.53399881 4.26091003 136.57601929 C5.54288269 136.60115601 6.82485535 136.62629272 8.14567566 136.65219116 C10.17553085 136.68098867 12.20530159 136.705025 14.23527527 136.72372437 C16.20233007 136.74536125 18.16915488 136.78543702 20.13591003 136.82601929 C21.30968201 136.83947388 22.48345398 136.85292847 23.6927948 136.86679077 C26.63200378 137.26742554 26.63200378 137.26742554 28.52043152 138.45809937 C32.61890322 145.12925549 29.14299759 157.63990317 28.13200378 165.01742554 C27.98891785 166.10797241 27.84583191 167.19851929 27.69841003 168.32211304 C27.34980082 170.97154306 26.99426523 173.61983392 26.63200378 176.26742554 C33.87170816 170.17261678 40.74451824 163.73982014 46.88200378 156.51742554 C50.37841821 152.43125446 54.14965556 148.63627912 57.94450378 144.82992554 C58.87987976 143.88778198 58.87987976 143.88778198 59.83415222 142.92660522 C60.42357605 142.33911499 61.01299988 141.75162476 61.62028503 141.14633179 C62.15178162 140.61596313 62.6832782 140.08559448 63.23088074 139.53915405 C65.93836479 137.08170773 67.99194393 137.13941716 71.53965759 137.12939453 C72.57709106 137.12394119 73.61452454 137.11848785 74.68339539 137.11286926 C76.39770752 137.11130577 76.39770752 137.11130577 78.14665222 137.10971069 C79.94679779 137.10208961 79.94679779 137.10208961 81.78330994 137.09431458 C84.39701059 137.08359158 87.0106577 137.07459625 89.62436676 137.06819534 C93.75962576 137.05751858 97.89480283 137.03727361 102.03001404 137.01507568 C113.79020933 136.95314381 125.55040039 136.89916973 137.31071472 136.86605835 C143.80346456 136.84769754 150.29607771 136.81874169 156.78872705 136.77805364 C160.22400595 136.75700464 163.65911275 136.74152943 167.09445953 136.73924637 C170.92970846 136.73669465 174.76462048 136.7112064 178.59977722 136.68392944 C179.73455505 136.68693558 180.86933289 136.68994171 182.03849792 136.69303894 C189.79918671 136.66658131 189.79918671 136.66658131 196.63200378 133.26742554 C199.54010332 128.85271037 198.92004749 123.35438301 198.90666199 118.24813843 C198.91177292 117.24267471 198.91688385 116.237211 198.92214966 115.20127869 C198.93603869 111.88081901 198.93508943 108.56056704 198.93278503 105.24008179 C198.93667221 102.92989525 198.94100693 100.61970943 198.94577026 98.30952454 C198.95323091 93.46840091 198.9529422 88.62735021 198.94767761 83.78622437 C198.94188193 77.58433412 198.95881737 71.38274241 198.98202229 65.18090153 C198.99675784 60.41022498 198.99763157 55.63962037 198.99451256 50.86892509 C198.99502581 48.58239589 199.00026435 46.29586267 199.01032448 44.00935555 C199.02266837 40.81140898 199.0159092 37.61404451 199.00431824 34.41610718 C199.01196198 33.47305725 199.01960571 32.53000732 199.02748108 31.55838013 C198.98652504 26.44293295 198.72248763 22.56954963 195.63200378 18.26742554 C191.45117654 16.02175182 187.41763875 15.98267738 182.78204346 16.00672913 C181.99796267 16.00290358 181.21388189 15.99907803 180.40604109 15.99513656 C177.78215616 15.98482855 175.15849096 15.98879451 172.53459167 15.99276733 C170.65198565 15.98841966 168.7693814 15.98323632 166.88677979 15.97727966 C161.77524584 15.96388479 156.66378582 15.96331152 151.55223775 15.96584296 C147.28523775 15.96691229 143.01825272 15.96203031 138.75125593 15.95723754 C128.68520802 15.94614078 118.61919743 15.94570598 108.55314636 15.95175171 C98.16768387 15.95779334 87.78235679 15.94547604 77.3969174 15.92418164 C68.48043963 15.90657125 59.56400499 15.90056337 50.64751047 15.90381938 C45.32202786 15.90563319 39.99664187 15.90298621 34.671175 15.88910484 C29.66346518 15.87654022 24.65596665 15.87845771 19.64826012 15.89151573 C17.81084751 15.89388399 15.9734201 15.8911379 14.13602448 15.88289261 C11.6267532 15.87244456 9.11819343 15.88050994 6.60894775 15.89320374 C5.88277333 15.88582945 5.1565989 15.87845517 4.40841919 15.87085742 C-0.23728494 15.92026086 -3.4213745 16.81757104 -7.36799622 19.26742554 Z M214.63200378 48.26742554 C214.62835815 49.33960327 214.62471252 50.41178101 214.62095642 51.51644897 C214.58395631 61.63884463 214.52612873 71.76093748 214.44810104 81.88310242 C214.40865372 87.08658071 214.3764517 92.28989047 214.36100769 97.49349976 C214.34582314 102.51874754 214.31134538 107.54353189 214.26369476 112.568573 C214.24889956 114.48218754 214.24096384 116.39586825 214.24011993 118.30953979 C214.23774292 120.99782256 214.21060479 123.68483223 214.17790222 126.37289429 C214.18544777 127.55002235 214.18544777 127.55002235 214.19314575 128.75093079 C214.07241856 135.19849694 212.1224247 140.38143441 207.88591003 145.29086304 C207.32774597 145.73687866 206.76958191 146.18289429 206.19450378 146.64242554 C205.63891785 147.10390991 205.08333191 147.56539429 204.51091003 148.04086304 C200.58489648 150.6037908 197.12389735 151.5186223 192.46211243 151.44496155 C191.44197556 151.43444763 190.42183868 151.42393372 189.37078857 151.4131012 C187.7078904 151.38099297 187.7078904 151.38099297 186.01139832 151.34823608 C183.57326083 151.31911758 181.13511976 151.2902976 178.69697571 151.26173401 C177.40527592 151.24321066 176.11357613 151.22468731 174.78273392 151.20560265 C170.72887652 151.15002455 166.6751632 151.12383324 162.62098694 151.10502625 C161.93481391 151.10175801 161.24864088 151.09848978 160.54167473 151.09512252 C159.13854397 151.08859141 157.73541267 151.08217352 156.33228087 151.07586634 C146.900677 151.03330085 137.47067496 150.97649219 128.04020691 150.81845093 C121.67011062 150.7119092 115.30204656 150.65968358 108.93103302 150.66840583 C105.56558568 150.67095774 102.20929517 150.63913476 98.84422684 150.55740929 C81.78621273 149.82181664 81.78621273 149.82181664 67.35908318 157.69768238 C62.33690997 162.3929118 62.33690997 162.3929118 59.63200378 168.26742554 C60.4790387 168.26547731 60.4790387 168.26547731 61.34318542 168.26348972 C75.10741566 168.23424 88.87114271 168.24416789 102.63531494 168.29589176 C109.29180255 168.31972939 115.9476258 168.33069669 122.60417175 168.31210327 C129.03004489 168.29463013 135.45501933 168.31115727 141.88078308 168.35110283 C144.33031159 168.36038568 146.779918 168.35748756 149.22941589 168.34211922 C152.66539344 168.32265749 156.09854172 168.34679065 159.53434753 168.38095093 C160.5435173 168.36513474 161.55268707 168.34931854 162.59243774 168.33302307 C169.04203511 168.45612785 172.34552669 169.84706727 176.92082214 174.42897701 C177.48551208 175.03566503 178.05020203 175.64235304 178.63200378 176.26742554 C179.82726451 177.42646915 181.02593939 178.58201413 182.22966003 179.73226929 C183.38787328 180.88655417 184.54279367 182.04415194 185.69450378 183.20492554 C186.30519714 183.81755249 186.9158905 184.43017944 187.54508972 185.06137085 C191.14577904 188.69673775 194.59669912 192.40626835 197.90153503 196.31430054 C201.60420037 200.49338106 205.64959374 204.35713157 209.63200378 208.26742554 C210.67710322 205.13212722 210.59978499 203.96957747 210.07341003 200.80258179 C209.93435242 199.92521362 209.7952948 199.04784546 209.65202332 198.14389038 C209.50104187 197.21528198 209.35006042 196.28667358 209.19450378 195.32992554 C206.04185415 174.55222677 206.04185415 174.55222677 208.75309753 170.65658569 C211.50643933 168.62091589 213.69834418 168.88179145 217.09294128 168.86117554 C218.36911316 168.83926147 219.64528503 168.81734741 220.96012878 168.79476929 C222.30907472 168.7839751 223.65803524 168.77487661 225.00700378 168.76742554 C227.64076564 168.75280059 230.27174719 168.71880941 232.90544128 168.67367554 C234.07510437 168.66658569 235.24476746 168.65949585 236.44987488 168.65219116 C240.01709382 168.22086256 241.84684933 167.52515872 244.63200378 165.26742554 C247.31031439 160.52205913 246.92052879 155.53798563 246.90666199 150.24813843 C246.91177292 149.24267471 246.91688385 148.237211 246.92214966 147.20127869 C246.93603869 143.88081901 246.93508943 140.56056704 246.93278503 137.24008179 C246.93667221 134.92989525 246.94100693 132.61970943 246.94577026 130.30952454 C246.95323091 125.46840091 246.9529422 120.62735021 246.94767761 115.78622437 C246.94188193 109.58433412 246.95881737 103.38274241 246.98202229 97.18090153 C246.99675784 92.41022498 246.99763157 87.63962037 246.99451256 82.86892509 C246.99502581 80.58239589 247.00026435 78.29586267 247.01032448 76.00935555 C247.02266837 72.81140898 247.0159092 69.61404451 247.00431824 66.41610718 C247.01196198 65.47305725 247.01960571 64.53000732 247.02748108 63.55838013 C246.98652504 58.44293295 246.72248763 54.56954963 243.63200378 50.26742554 C240.07896596 48.18827079 236.95598375 48.02866639 232.89372253 48.07211304 C231.82702332 48.07855835 230.7603241 48.08500366 229.66130066 48.09164429 C228.55850769 48.1084021 227.45571472 48.12515991 226.31950378 48.14242554 C225.19737488 48.15144897 224.07524597 48.16047241 222.91911316 48.16976929 C220.15652469 48.19328068 217.39437446 48.22614399 214.63200378 48.26742554 Z M-103.36799622 59.26742554 C-105.91685257 63.78816803 -105.64275827 68.3336896 -105.60850525 73.37260437 C-105.6102141 74.29159222 -105.61192295 75.21058008 -105.61368358 76.15741605 C-105.61697848 79.23754079 -105.60597468 82.31744781 -105.595047 85.39755249 C-105.59448288 87.60515844 -105.59479944 89.81276476 -105.59593201 92.02037048 C-105.59650651 98.01578376 -105.58473627 104.01111722 -105.57078409 110.00651193 C-105.55829311 116.27122866 -105.55710752 122.53594717 -105.55473328 128.80067444 C-105.54922063 139.31637868 -105.53672282 149.8320582 -105.51887512 160.3477478 C-105.50051241 171.17814996 -105.48635782 182.00854416 -105.4778595 192.83895874 C-105.47733405 193.50673213 -105.4768086 194.17450552 -105.47626723 194.86251447 C-105.47365713 198.21259321 -105.47112972 201.56267201 -105.46864343 204.91275084 C-105.44773063 232.69766282 -105.41254537 260.48254212 -105.36799622 288.26742554 C-100.08799622 288.26742554 -94.80799622 288.26742554 -89.36799622 288.26742554 C-89.36560786 287.17759967 -89.36321951 286.0877738 -89.36075878 284.9649229 C-89.30202628 258.47613766 -89.22618239 231.98744383 -89.1322813 205.49875927 C-89.08727015 192.68915312 -89.04786782 179.87957511 -89.02156067 167.06991577 C-88.99862361 155.90811673 -88.96527388 144.74640632 -88.91929466 133.58467752 C-88.89530442 127.67182196 -88.87661372 121.75905451 -88.87038231 115.84615135 C-88.86435763 110.28528279 -88.84445308 104.72463983 -88.8137207 99.1638546 C-88.80489833 97.1187954 -88.80122651 95.07370677 -88.80298805 93.0286293 C-88.80462967 90.2443318 -88.78803725 87.4607312 -88.76672363 84.67652893 C-88.77157121 83.86038642 -88.77641878 83.0442439 -88.78141326 82.2033698 C-88.71244745 76.77413265 -88.71244745 76.77413265 -87.00798798 74.26677704 C-84.51715831 72.74895577 -82.41818001 72.86543585 -79.51960754 72.83505249 C-77.71807976 72.80536125 -77.71807976 72.80536125 -75.88015747 72.77507019 C-74.58321457 72.76868027 -73.28627167 72.76229034 -71.95002747 72.75570679 C-70.60908356 72.73886095 -69.26815546 72.72071083 -67.92724609 72.7013092 C-64.40097491 72.65379196 -60.87476778 72.62399421 -57.34828186 72.59786987 C-53.74860482 72.56807273 -50.14914853 72.5215396 -46.54963684 72.47640991 C-39.48920224 72.39035743 -32.42873257 72.32456809 -25.36799622 72.26742554 C-25.36799622 66.98742554 -25.36799622 61.70742554 -25.36799622 56.26742554 C-34.65199725 56.19957529 -43.93583287 56.14456656 -53.22002602 56.11198902 C-57.53132484 56.09635129 -61.84244483 56.07514778 -66.15364075 56.04110718 C-70.31632107 56.00844595 -74.47882967 55.99055828 -78.64162827 55.98279381 C-80.22761614 55.97726241 -81.81359491 55.96646088 -83.39950943 55.95023537 C-85.62570048 55.92837063 -87.85118725 55.9254623 -90.07746887 55.92684937 C-91.34321747 55.92018753 -92.60896606 55.9135257 -93.91307068 55.90666199 C-97.7880224 56.3112847 -100.13483825 57.09787301 -103.36799622 59.26742554 Z M262.63200378 56.26742554 C262.63200378 61.54742554 262.63200378 66.82742554 262.63200378 72.26742554 C264.43387146 72.28200806 266.23573914 72.29659058 268.09220886 72.31161499 C274.04353484 72.36324712 279.99457964 72.42852753 285.94565296 72.50314045 C289.55405256 72.54788104 293.16233829 72.58712858 296.7709198 72.61386108 C300.25299964 72.63985795 303.73464218 72.68023349 307.21645164 72.7306118 C309.19225578 72.75543318 311.16822898 72.76533493 313.14416504 72.77507019 C314.34518356 72.79486435 315.54620209 72.81465851 316.78361511 72.83505249 C318.37246269 72.85170708 318.37246269 72.85170708 319.9934082 72.86869812 C322.63200378 73.26742554 322.63200378 73.26742554 324.27199554 74.26677704 C326.44930628 77.46972341 326.05296082 80.93392974 326.0307312 84.67652893 C326.03737803 85.54480531 326.04402485 86.41308168 326.0508731 87.30766946 C326.06958226 90.22821057 326.0668925 93.14834486 326.06437683 96.06893921 C326.07338916 98.15803103 326.08371506 100.24711754 326.09526062 102.3361969 C326.12291889 108.01767007 326.13212711 113.69904315 326.13811469 119.38057494 C326.14747543 125.31436007 326.17367688 131.24806976 326.19812012 137.18180847 C326.24185224 148.42272168 326.27035795 159.66362031 326.2934435 170.90459281 C326.32045923 183.70010912 326.36437294 196.49554978 326.40973222 209.29101217 C326.50267464 235.61644232 326.57431139 261.94189621 326.63200378 288.26742554 C331.91200378 288.26742554 337.19200378 288.26742554 342.63200378 288.26742554 C342.70044384 259.83329864 342.75353398 231.3991821 342.78519977 202.96498897 C342.78895189 199.60795597 342.79283485 196.25092314 342.79679871 192.89389038 C342.79758564 192.22556653 342.79837257 191.55724269 342.79918335 190.8686666 C342.81223672 180.04772931 342.83589018 169.22683984 342.86346217 158.40593092 C342.89151829 147.3024051 342.90795593 136.19889879 342.91426927 125.09533846 C342.9181838 118.85874211 342.92739848 112.62225422 342.94919395 106.3856926 C342.96953758 100.51708627 342.97584183 94.64863321 342.97132683 88.77999496 C342.97215297 86.62490507 342.97813116 84.4698101 342.98962021 82.31475067 C343.00453086 79.37393121 343.00096239 76.43369158 342.99276733 73.49285889 C343.00150586 72.63876352 343.01024438 71.78466815 343.01924771 70.9046911 C342.98197003 65.96049798 342.39021418 62.54523169 339.63200378 58.26742554 C335.72395511 55.8921429 331.94924875 56.02463309 327.45500183 56.04037476 C326.75201462 56.0400827 326.0490274 56.03979065 325.32473755 56.03948975 C323.01427116 56.04087677 320.70413219 56.05640804 318.39372253 56.07211304 C316.78661271 56.07584541 315.17950061 56.07869132 313.5723877 56.08068848 C309.35226609 56.08830732 305.13228318 56.10794071 300.91221619 56.13009644 C296.60203426 56.1505926 292.29182982 56.15969825 287.98161316 56.16976929 C279.53167277 56.19118834 271.08187154 56.22635615 262.63200378 56.26742554 Z M-73.36799622 88.26742554 C-73.36799622 154.26742554 -73.36799622 220.26742554 -73.36799622 288.26742554 C53.35200378 288.26742554 180.07200378 288.26742554 310.63200378 288.26742554 C310.63200378 222.26742554 310.63200378 156.26742554 310.63200378 88.26742554 C294.79200378 88.26742554 278.95200378 88.26742554 262.63200378 88.26742554 C262.60622253 93.87742554 262.58044128 99.48742554 262.55387878 105.26742554 C262.52869852 108.8312727 262.50235661 112.39503598 262.47184753 115.95883179 C262.42358136 121.60971343 262.37951087 127.26040081 262.36100769 132.91146851 C262.34581217 137.46990111 262.3113155 142.02782394 262.26369476 146.58602905 C262.24891075 148.3210099 262.24096448 150.05606355 262.24011993 151.79110718 C262.23773945 154.23037424 262.21057533 156.66824477 262.17790222 159.10726929 C262.18293259 159.81721542 262.18796295 160.52716156 262.19314575 161.25862122 C262.06495873 167.48439053 259.89679516 172.46261092 256.02653503 177.25570679 C246.71095519 185.05319214 236.25360747 184.88048351 224.63200378 185.26742554 C224.89877263 187.80957569 225.16955685 190.35115299 225.44450378 192.89242554 C225.53070984 193.68987183 225.61691589 194.48731812 225.70573425 195.30892944 C226.31803607 200.82176821 227.05127058 206.30781748 227.84709167 211.79696655 C231.13527866 234.62235028 231.13527866 234.62235028 228.60856628 239.06820679 C226.08124013 240.60158451 223.83392545 241.12452863 220.88136292 241.0615387 C216.08693026 239.36891345 213.72343379 234.0085946 211.0670929 229.89782715 C197.95946261 210.14163588 179.96179452 188.11014375 155.91618347 182.49301147 C138.34635136 179.13421474 120.48597742 179.02803756 102.6682663 179.24847412 C100.6370567 179.26737851 98.60658633 179.26929995 96.57530212 179.26473999 C60.95463131 177.94754002 60.95463131 177.94754002 30.49674988 193.21395874 C26.79215367 197.21594728 23.72347995 201.62525173 20.59587097 206.08627319 C18.63200378 208.26742554 18.63200378 208.26742554 16.4259491 209.10092163 C13.45628057 209.21699769 11.19694266 208.60594271 8.65348816 207.08187866 C4.08309034 198.96352384 8.80115178 183.67073616 10.13200378 174.76742554 C10.49124286 172.32170661 10.84804344 169.87566493 11.20195007 167.4291687 C11.42098537 165.91945496 11.64339054 164.41022508 11.86967468 162.90158081 C12.34984259 159.6316084 12.63200378 156.58362883 12.63200378 153.26742554 C11.50923035 153.23004272 10.38645691 153.19265991 9.22966003 153.15414429 C-2.15802339 152.69370182 -10.72290739 152.08416897 -19.64143372 144.37680054 C-24.68854684 138.21064423 -24.83091295 131.95442247 -24.87971497 124.30258179 C-24.89635193 123.3856958 -24.91298889 122.46880981 -24.93013 121.5241394 C-24.98760147 118.12629718 -25.02010008 114.72806943 -25.05549622 111.32992554 C-25.21018372 99.91398804 -25.21018372 99.91398804 -25.36799622 88.26742554 C-41.20799622 88.26742554 -57.04799622 88.26742554 -73.36799622 88.26742554 Z M-105.36799622 304.26742554 C-107.1568506 325.80775076 -107.1568506 325.80775076 -102.36799622 334.26742554 C-98.42511747 336.67214877 -94.55964538 336.51889276 -90.02281284 336.52190113 C-89.28946377 336.52510761 -88.55611469 336.52831409 -87.80054292 336.53161773 C-85.33585202 336.53993881 -82.87140278 336.53398611 -80.40670776 336.52812195 C-78.62475325 336.53114167 -76.84280004 336.53503024 -75.06084913 336.53971452 C-70.15822743 336.55002634 -65.25567859 336.54780461 -60.35305083 336.54353392 C-55.06803124 336.54107248 -49.78302947 336.55007359 -44.49801636 336.55757141 C-34.14203787 336.57033646 -23.7860853 336.57210987 -13.43010027 336.56977115 C-5.0149353 336.56798992 3.40022179 336.56973344 11.81538582 336.57399559 C13.01193209 336.57459078 14.20847836 336.57518597 15.4412836 336.57579919 C17.87186555 336.57701091 20.30244749 336.57822505 22.73302943 336.57944157 C45.53921521 336.59032398 68.34538622 336.58815124 91.15157283 336.58205672 C112.02763411 336.57688641 132.90364875 336.58814479 153.77970081 336.60715494 C175.20266759 336.62651397 196.62561227 336.63479278 218.04858786 336.63103169 C230.08101121 336.62911677 242.11339485 336.63163551 254.14581108 336.64574623 C264.38853226 336.65763632 274.63118929 336.6590916 284.87391131 336.64695606 C290.10194401 336.6410508 295.32985922 336.64001332 300.55788422 336.65195847 C305.34141746 336.66276122 310.12473432 336.6597811 314.90825719 336.64569678 C316.64104274 336.64303433 318.37384495 336.64546458 320.10661422 336.65343264 C322.45833217 336.6634984 324.80929208 336.65515173 327.16097927 336.64215565 C328.46830405 336.64221066 329.77562882 336.64226568 331.1225695 336.64232236 C335.01866948 336.22611981 337.38358479 335.45386124 340.63200378 333.26742554 C344.11756649 325.45104624 344.11756649 325.45104624 342.63200378 304.26742554 C194.79200378 304.26742554 46.95200378 304.26742554 -105.36799622 304.26742554 Z M92.63200378 352.26742554 C90.98200378 357.17617554 89.33200378 362.08492554 87.63200378 367.14242554 C87.10993347 368.69042847 86.58786316 370.2384314 86.04997253 371.83334351 C85.64391785 373.04651245 85.23786316 374.2596814 84.81950378 375.50961304 C84.40055847 376.75597534 83.98161316 378.00233765 83.54997253 379.28646851 C82.53390183 382.06614632 82.53390183 382.06614632 82.63200378 384.26742554 C106.39200378 384.26742554 130.15200378 384.26742554 154.63200378 384.26742554 C151.69156949 373.48583312 148.16596599 362.86931216 144.63200378 352.26742554 C127.47200378 352.26742554 110.31200378 352.26742554 92.63200378 352.26742554 Z M56.63200378 403.26742554 C55.21158558 406.10826195 55.31748106 408.12219831 55.63200378 411.26742554 C57.86406809 414.11523173 59.18193377 415.1174022 62.63200378 416.26742554 C64.15386335 416.36260128 65.67952309 416.40230451 67.2043457 416.40786743 C68.61110313 416.41643265 68.61110313 416.41643265 70.04627991 416.4251709 C71.07335052 416.42628876 72.10042114 416.42740662 73.15861511 416.42855835 C74.24181534 416.43352325 75.32501556 416.43848816 76.44104004 416.44360352 C80.03204478 416.45823386 83.62300535 416.46502861 87.21403503 416.47055054 C89.70644126 416.47630126 92.19884747 416.482059 94.69125366 416.48782349 C99.25226642 416.49699182 103.8132665 416.50329113 108.37428743 416.50632024 C114.41379411 416.51035361 120.45314531 416.52262912 126.49259949 416.54867554 C132.97348225 416.57619606 139.45423154 416.58906757 145.93517113 416.59099579 C148.40591734 416.59402392 150.87666265 416.60205779 153.34737587 416.61518097 C156.80414416 416.63223087 160.26041561 416.6303635 163.71720886 416.62387085 C164.73820679 416.63308563 165.75920471 416.64230042 166.81114197 416.65179443 C172.15192751 416.62036284 176.05101769 416.35189803 180.63200378 413.26742554 C182.05242199 410.42658912 181.94652651 408.41265276 181.63200378 405.26742554 C179.39993947 402.41961935 178.0820738 401.41744888 174.63200378 400.26742554 C173.11014422 400.17224979 171.58448448 400.13254657 170.05966187 400.12698364 C169.12182358 400.1212735 168.18398529 400.11556335 167.21772766 400.10968018 C166.19065704 400.10856232 165.16358643 400.10744446 164.10539246 400.10629272 C163.02219223 400.10132782 161.938992 400.09636292 160.82296753 400.09124756 C157.23196278 400.07661721 153.64100221 400.06982246 150.04997253 400.06430054 C147.55756631 400.05854982 145.0651601 400.05279207 142.57275391 400.04702759 C138.01174114 400.03785925 133.45074107 400.03155994 128.88972014 400.02853084 C122.85021346 400.02449747 116.81086225 400.01222196 110.77140808 399.98617554 C104.29052531 399.95865502 97.80977603 399.9457835 91.32883644 399.94385529 C88.85809023 399.94082716 86.38734491 399.93279328 83.9166317 399.9196701 C80.45986341 399.90262021 77.00359196 399.90448757 73.54679871 399.91098022 C72.52580078 399.90176544 71.50480286 399.89255066 70.4528656 399.88305664 C65.11208006 399.91448824 61.21298988 400.18295304 56.63200378 403.26742554 Z " fill="#2ABEE2" transform="translate(137.3679962158203,39.732574462890625)"/>
<path d="M0 0 C1.0094165 -0.0112793 2.01883301 -0.02255859 3.05883789 -0.03417969 C4.16026123 -0.02608276 5.26168457 -0.01798584 6.39648438 -0.00964355 C7.56107178 -0.01665283 8.72565918 -0.02366211 9.92553711 -0.03088379 C13.78067771 -0.04850975 17.63508612 -0.03682384 21.49023438 -0.02331543 C24.1653739 -0.026009 26.84049107 -0.02988396 29.515625 -0.03491211 C35.12442987 -0.0421874 40.733024 -0.03260414 46.34179688 -0.0135498 C52.82441344 0.008219 59.30652679 0.00116752 65.78913116 -0.02085543 C71.35700027 -0.03901302 76.92471797 -0.04156609 82.49260712 -0.03110075 C85.81719107 -0.02486765 89.14148689 -0.02559741 92.46606445 -0.0372467 C96.17238595 -0.04738291 99.87773545 -0.03195028 103.58398438 -0.00964355 C104.68540771 -0.01774048 105.78683105 -0.0258374 106.92163086 -0.03417969 C108.43575562 -0.01726074 108.43575562 -0.01726074 109.98046875 0 C110.85650757 0.0015081 111.73254639 0.0030162 112.63513184 0.00457001 C115.76922829 0.67443175 116.98468568 2.06729702 118.99023438 4.50793457 C119.52148438 6.50793457 119.52148438 6.50793457 119.49023438 8.50793457 C119.50570312 9.49793457 119.50570312 9.49793457 119.52148438 10.50793457 C118.75060311 13.41007581 117.27232168 14.5993654 114.99023438 16.50793457 C112.63513184 17.01129913 112.63513184 17.01129913 109.98046875 17.01586914 C108.97105225 17.02714844 107.96163574 17.03842773 106.92163086 17.05004883 C105.82020752 17.0419519 104.71878418 17.03385498 103.58398438 17.0255127 C102.41939697 17.03252197 101.25480957 17.03953125 100.05493164 17.04675293 C96.19979104 17.06437889 92.34538263 17.05269298 88.49023438 17.03918457 C85.81509485 17.04187814 83.13997768 17.0457531 80.46484375 17.05078125 C74.85603888 17.05805654 69.24744475 17.04847328 63.63867188 17.02941895 C57.15605531 17.00765014 50.67394196 17.01470162 44.19133759 17.03672457 C38.62346848 17.05488216 33.05575078 17.05743523 27.48786163 17.04696989 C24.16327768 17.04073679 20.83898186 17.04146655 17.5144043 17.05311584 C13.8080828 17.06325205 10.1027333 17.04781942 6.39648438 17.0255127 C5.29506104 17.03360962 4.1936377 17.04170654 3.05883789 17.05004883 C1.54471313 17.03312988 1.54471313 17.03312988 0 17.01586914 C-0.87603882 17.01436104 -1.75207764 17.01285294 -2.65466309 17.01129913 C-5.78875954 16.34143739 -7.00421693 14.94857212 -9.00976562 12.50793457 C-9.54101562 10.50793457 -9.54101562 10.50793457 -9.50976562 8.50793457 C-9.52523437 7.51793457 -9.52523437 7.51793457 -9.54101562 6.50793457 C-8.23625145 1.59588121 -4.74608273 0.00817039 0 0 Z " fill="#27C1E1" transform="translate(177.009765625,127.4920654296875)"/>
<path d="M0 0 C1.0094165 -0.0112793 2.01883301 -0.02255859 3.05883789 -0.03417969 C4.16026123 -0.02608276 5.26168457 -0.01798584 6.39648438 -0.00964355 C7.56107178 -0.01665283 8.72565918 -0.02366211 9.92553711 -0.03088379 C13.78067771 -0.04850975 17.63508612 -0.03682384 21.49023438 -0.02331543 C24.1653739 -0.026009 26.84049107 -0.02988396 29.515625 -0.03491211 C35.12442987 -0.0421874 40.733024 -0.03260414 46.34179688 -0.0135498 C52.82441344 0.008219 59.30652679 0.00116752 65.78913116 -0.02085543 C71.35700027 -0.03901302 76.92471797 -0.04156609 82.49260712 -0.03110075 C85.81719107 -0.02486765 89.14148689 -0.02559741 92.46606445 -0.0372467 C96.17238595 -0.04738291 99.87773545 -0.03195028 103.58398438 -0.00964355 C104.68540771 -0.01774048 105.78683105 -0.0258374 106.92163086 -0.03417969 C108.43575562 -0.01726074 108.43575562 -0.01726074 109.98046875 0 C110.85650757 0.0015081 111.73254639 0.0030162 112.63513184 0.00457001 C115.76922829 0.67443175 116.98468568 2.06729702 118.99023438 4.50793457 C119.52148438 6.50793457 119.52148438 6.50793457 119.49023438 8.50793457 C119.50570312 9.49793457 119.50570312 9.49793457 119.52148438 10.50793457 C118.75060311 13.41007581 117.27232168 14.5993654 114.99023438 16.50793457 C112.63513184 17.01129913 112.63513184 17.01129913 109.98046875 17.01586914 C108.97105225 17.02714844 107.96163574 17.03842773 106.92163086 17.05004883 C105.82020752 17.0419519 104.71878418 17.03385498 103.58398438 17.0255127 C102.41939697 17.03252197 101.25480957 17.03953125 100.05493164 17.04675293 C96.19979104 17.06437889 92.34538263 17.05269298 88.49023438 17.03918457 C85.81509485 17.04187814 83.13997768 17.0457531 80.46484375 17.05078125 C74.85603888 17.05805654 69.24744475 17.04847328 63.63867188 17.02941895 C57.15605531 17.00765014 50.67394196 17.01470162 44.19133759 17.03672457 C38.62346848 17.05488216 33.05575078 17.05743523 27.48786163 17.04696989 C24.16327768 17.04073679 20.83898186 17.04146655 17.5144043 17.05311584 C13.8080828 17.06325205 10.1027333 17.04781942 6.39648438 17.0255127 C5.29506104 17.03360962 4.1936377 17.04170654 3.05883789 17.05004883 C1.54471313 17.03312988 1.54471313 17.03312988 0 17.01586914 C-0.87603882 17.01436104 -1.75207764 17.01285294 -2.65466309 17.01129913 C-5.78875954 16.34143739 -7.00421693 14.94857212 -9.00976562 12.50793457 C-9.54101562 10.50793457 -9.54101562 10.50793457 -9.50976562 8.50793457 C-9.52523437 7.51793457 -9.52523437 7.51793457 -9.54101562 6.50793457 C-8.23625145 1.59588121 -4.74608273 0.00817039 0 0 Z " fill="#27C1E1" transform="translate(177.009765625,87.4920654296875)"/>
<path d="M0 0 C2.5 1.5 2.5 1.5 4 4 C4.791013 8.02098277 4.62153384 10.96411027 2.5 14.5 C-1.03588973 16.62153384 -3.97901723 16.791013 -8 16 C-10.5 14.5 -10.5 14.5 -12 12 C-12.791013 7.97901723 -12.62153384 5.03588973 -10.5 1.5 C-6.96411027 -0.62153384 -4.02098277 -0.791013 0 0 Z " fill="#41A6E6" transform="translate(460,352)"/>
<path d="M0 0 C2.5 1.5 2.5 1.5 4 4 C4.791013 8.02098277 4.62153384 10.96411027 2.5 14.5 C-1.03588973 16.62153384 -3.97901723 16.791013 -8 16 C-10.5 14.5 -10.5 14.5 -12 12 C-12.791013 7.97901723 -12.62153384 5.03588973 -10.5 1.5 C-6.96411027 -0.62153384 -4.02098277 -0.791013 0 0 Z " fill="#3EA8E6" transform="translate(436,352)"/>
</svg>
